<mxfile host="app.diagrams.net" modified="2022-06-09T10:19:59.889Z" agent="5.0 (Windows NT 10.0; Win64; x64) AppleWebKit/537.36 (KHTML, like Gecko) Chrome/101.0.4951.67 Safari/537.36" etag="Tna29d67QSD89xPjUxeI" version="18.2.0" type="github">
  <diagram id="Pq3tXsBSMGuU7OvGxvsU" name="Page-1">
    <mxGraphModel dx="3140" dy="1136" grid="0" gridSize="10" guides="1" tooltips="1" connect="1" arrows="1" fold="1" page="0" pageScale="1" pageWidth="850" pageHeight="1100" math="0" shadow="0">
      <root>
        <mxCell id="0" />
        <mxCell id="1" parent="0" />
        <mxCell id="TZ88oczVElVVKr846Iuc-1" value="" style="rounded=0;whiteSpace=wrap;html=1;" vertex="1" parent="1">
          <mxGeometry x="-176" y="-246" width="1990" height="1110" as="geometry" />
        </mxCell>
        <mxCell id="TZ88oczVElVVKr846Iuc-2" value="" style="rounded=0;whiteSpace=wrap;html=1;dashed=1;" vertex="1" parent="1">
          <mxGeometry x="780" y="10" width="970" height="610" as="geometry" />
        </mxCell>
        <mxCell id="TZ88oczVElVVKr846Iuc-3" value="" style="rounded=0;whiteSpace=wrap;html=1;dashed=1;" vertex="1" parent="1">
          <mxGeometry x="20" y="10" width="750" height="610" as="geometry" />
        </mxCell>
        <mxCell id="TZ88oczVElVVKr846Iuc-4" value="" style="rounded=0;whiteSpace=wrap;html=1;" vertex="1" parent="1">
          <mxGeometry x="60" y="180" width="330" height="330" as="geometry" />
        </mxCell>
        <mxCell id="TZ88oczVElVVKr846Iuc-5" value="Ceph4" style="rounded=0;whiteSpace=wrap;html=1;strokeColor=#36393d;fillColor=#ffff88;" vertex="1" parent="1">
          <mxGeometry x="165" y="434" width="120" height="60" as="geometry" />
        </mxCell>
        <mxCell id="TZ88oczVElVVKr846Iuc-6" value="" style="rounded=0;whiteSpace=wrap;html=1;" vertex="1" parent="1">
          <mxGeometry x="425" y="320" width="325" height="190" as="geometry" />
        </mxCell>
        <mxCell id="TZ88oczVElVVKr846Iuc-7" value="OSP-16" style="rounded=0;whiteSpace=wrap;html=1;fillColor=#fff2cc;strokeColor=#d6b656;" vertex="1" parent="1">
          <mxGeometry x="240" y="340" width="120" height="60" as="geometry" />
        </mxCell>
        <mxCell id="TZ88oczVElVVKr846Iuc-8" value="OSP-16" style="rounded=0;whiteSpace=wrap;html=1;fillColor=#fff2cc;strokeColor=#d6b656;" vertex="1" parent="1">
          <mxGeometry x="447" y="340" width="120" height="60" as="geometry" />
        </mxCell>
        <mxCell id="TZ88oczVElVVKr846Iuc-9" value="M2l-d" style="rounded=0;whiteSpace=wrap;html=1;strokeColor=none;" vertex="1" parent="1">
          <mxGeometry x="539" y="527" width="120" height="60" as="geometry" />
        </mxCell>
        <mxCell id="TZ88oczVElVVKr846Iuc-10" value="" style="rounded=0;whiteSpace=wrap;html=1;fillColor=#f8cecc;strokeColor=#b85450;" vertex="1" parent="1">
          <mxGeometry x="60" y="180" width="330" height="140" as="geometry" />
        </mxCell>
        <mxCell id="TZ88oczVElVVKr846Iuc-11" value="OSP-10" style="rounded=0;whiteSpace=wrap;html=1;" vertex="1" parent="1">
          <mxGeometry x="90" y="340" width="120" height="60" as="geometry" />
        </mxCell>
        <mxCell id="TZ88oczVElVVKr846Iuc-12" value="Central" style="rounded=0;whiteSpace=wrap;html=1;strokeColor=none;fillColor=#f8cecc;" vertex="1" parent="1">
          <mxGeometry x="158" y="260" width="120" height="60" as="geometry" />
        </mxCell>
        <mxCell id="TZ88oczVElVVKr846Iuc-13" value="FCAPS" style="rounded=0;whiteSpace=wrap;html=1;" vertex="1" parent="1">
          <mxGeometry x="90" y="210" width="120" height="60" as="geometry" />
        </mxCell>
        <mxCell id="TZ88oczVElVVKr846Iuc-14" value="" style="rounded=0;whiteSpace=wrap;html=1;" vertex="1" parent="1">
          <mxGeometry x="800" y="180" width="330" height="330" as="geometry" />
        </mxCell>
        <mxCell id="TZ88oczVElVVKr846Iuc-15" value="A2E" style="rounded=0;whiteSpace=wrap;html=1;strokeColor=none;" vertex="1" parent="1">
          <mxGeometry x="902" y="522" width="120" height="60" as="geometry" />
        </mxCell>
        <mxCell id="TZ88oczVElVVKr846Iuc-16" value="" style="rounded=0;whiteSpace=wrap;html=1;" vertex="1" parent="1">
          <mxGeometry x="1165" y="320" width="325" height="190" as="geometry" />
        </mxCell>
        <mxCell id="TZ88oczVElVVKr846Iuc-17" value="OSP-16" style="rounded=0;whiteSpace=wrap;html=1;fillColor=#fff2cc;strokeColor=#d6b656;" vertex="1" parent="1">
          <mxGeometry x="980" y="340" width="120" height="60" as="geometry" />
        </mxCell>
        <mxCell id="TZ88oczVElVVKr846Iuc-18" value="AUQ-d" style="rounded=0;whiteSpace=wrap;html=1;strokeColor=none;" vertex="1" parent="1">
          <mxGeometry x="1276" y="522" width="120" height="60" as="geometry" />
        </mxCell>
        <mxCell id="TZ88oczVElVVKr846Iuc-19" value="" style="rounded=0;whiteSpace=wrap;html=1;fillColor=#f8cecc;strokeColor=#b85450;" vertex="1" parent="1">
          <mxGeometry x="800" y="180" width="330" height="140" as="geometry" />
        </mxCell>
        <mxCell id="TZ88oczVElVVKr846Iuc-20" value="OSP-10" style="rounded=0;whiteSpace=wrap;html=1;" vertex="1" parent="1">
          <mxGeometry x="830" y="340" width="120" height="60" as="geometry" />
        </mxCell>
        <mxCell id="TZ88oczVElVVKr846Iuc-21" value="A2E-Central" style="rounded=0;whiteSpace=wrap;html=1;strokeColor=none;fillColor=#f8cecc;" vertex="1" parent="1">
          <mxGeometry x="898" y="260" width="120" height="60" as="geometry" />
        </mxCell>
        <mxCell id="TZ88oczVElVVKr846Iuc-22" value="FCAPS" style="rounded=0;whiteSpace=wrap;html=1;" vertex="1" parent="1">
          <mxGeometry x="830" y="210" width="120" height="60" as="geometry" />
        </mxCell>
        <mxCell id="TZ88oczVElVVKr846Iuc-23" value="OSP-16" style="rounded=0;whiteSpace=wrap;html=1;fillColor=#fff2cc;strokeColor=#d6b656;" vertex="1" parent="1">
          <mxGeometry x="1342.5" y="340" width="120" height="60" as="geometry" />
        </mxCell>
        <mxCell id="TZ88oczVElVVKr846Iuc-24" value="OSP-10" style="rounded=0;whiteSpace=wrap;html=1;" vertex="1" parent="1">
          <mxGeometry x="1192.5" y="340" width="120" height="60" as="geometry" />
        </mxCell>
        <mxCell id="TZ88oczVElVVKr846Iuc-25" value="&lt;h2 style=&quot;font-size: 24px;&quot;&gt;&lt;font style=&quot;font-size: 24px;&quot;&gt;LABs&lt;/font&gt;&lt;/h2&gt;" style="rounded=0;whiteSpace=wrap;html=1;strokeColor=none;strokeWidth=4;" vertex="1" parent="1">
          <mxGeometry x="360" y="550" width="120" height="60" as="geometry" />
        </mxCell>
        <mxCell id="TZ88oczVElVVKr846Iuc-26" value="&lt;h2 style=&quot;&quot;&gt;&lt;font style=&quot;font-size: 24px;&quot;&gt;Commercial&lt;/font&gt;&lt;/h2&gt;" style="rounded=0;whiteSpace=wrap;html=1;strokeColor=none;strokeWidth=4;" vertex="1" parent="1">
          <mxGeometry x="1089" y="550" width="120" height="60" as="geometry" />
        </mxCell>
        <mxCell id="TZ88oczVElVVKr846Iuc-28" value="&lt;h1 style=&quot;&quot;&gt;&lt;font style=&quot;font-size: 36px;&quot;&gt;Etisalat Telco Cloud&lt;/font&gt;&lt;/h1&gt;" style="rounded=0;whiteSpace=wrap;html=1;strokeColor=none;strokeWidth=4;fillColor=#d5e8d4;" vertex="1" parent="1">
          <mxGeometry x="548" y="-190" width="470" height="60" as="geometry" />
        </mxCell>
        <mxCell id="TZ88oczVElVVKr846Iuc-29" value="" style="endArrow=none;dashed=1;html=1;rounded=0;fontSize=36;entryX=1;entryY=0.656;entryDx=0;entryDy=0;entryPerimeter=0;" edge="1" parent="1">
          <mxGeometry width="50" height="50" relative="1" as="geometry">
            <mxPoint x="1530" y="416.00000000000045" as="sourcePoint" />
            <mxPoint x="1610" y="416.1599999999994" as="targetPoint" />
          </mxGeometry>
        </mxCell>
        <mxCell id="TZ88oczVElVVKr846Iuc-30" value="&lt;font color=&quot;#ff0000&quot;&gt;Other sites&lt;/font&gt;" style="rounded=0;whiteSpace=wrap;html=1;strokeColor=none;" vertex="1" parent="1">
          <mxGeometry x="1515" y="420" width="120" height="60" as="geometry" />
        </mxCell>
        <mxCell id="TZ88oczVElVVKr846Iuc-31" value="OCP-workload" style="rounded=0;whiteSpace=wrap;html=1;fillColor=#fff2cc;strokeColor=#d6b656;" vertex="1" parent="1">
          <mxGeometry x="980" y="412" width="120" height="60" as="geometry" />
        </mxCell>
        <mxCell id="TZ88oczVElVVKr846Iuc-32" value="OCP-FCAPS" style="rounded=0;whiteSpace=wrap;html=1;fillColor=#fff2cc;strokeColor=#d6b656;" vertex="1" parent="1">
          <mxGeometry x="980" y="210" width="120" height="60" as="geometry" />
        </mxCell>
        <mxCell id="TZ88oczVElVVKr846Iuc-34" value="Ceph4" style="rounded=0;whiteSpace=wrap;html=1;strokeColor=#d6b656;fillColor=#fff2cc;" vertex="1" parent="1">
          <mxGeometry x="536" y="428" width="120" height="60" as="geometry" />
        </mxCell>
        <mxCell id="TZ88oczVElVVKr846Iuc-36" value="AKB" style="rounded=0;whiteSpace=wrap;html=1;strokeColor=none;" vertex="1" parent="1">
          <mxGeometry x="158" y="527" width="120" height="60" as="geometry" />
        </mxCell>
        <mxCell id="TZ88oczVElVVKr846Iuc-37" value="Ceph4" style="rounded=0;whiteSpace=wrap;html=1;strokeColor=#36393d;fillColor=#ffff88;" vertex="1" parent="1">
          <mxGeometry x="830" y="412" width="120" height="60" as="geometry" />
        </mxCell>
        <mxCell id="TZ88oczVElVVKr846Iuc-38" value="Ceph4" style="rounded=0;whiteSpace=wrap;html=1;strokeColor=#36393d;fillColor=#ffff88;" vertex="1" parent="1">
          <mxGeometry x="1270" y="412" width="120" height="60" as="geometry" />
        </mxCell>
      </root>
    </mxGraphModel>
  </diagram>
</mxfile>
